P2
10 10
255
4 4 4 0 0 0 0 0 0 0 
4 0 4 0 0 0 0 0 0 0 
4 4 4 0 0 0 0 0 0 0 
0 0 0 8 8 8 8 8 0 0 
0 0 0 8 8 8 8 8 0 0 
0 0 0 8 8 8 8 8 0 0 
0 0 0 8 8 8 8 8 0 0 
0 0 0 8 8 8 8 8 0 0 
0 0 0 0 0 0 0 0 0 0 
0 0 0 0 0 0 0 0 0 0 
